<svg width="7878" height="2383" viewBox="0 0 7878 2383" fill="none" xmlns="http://www.w3.org/2000/svg">
<g clip-path="url(#clip0_5858_3385)">
<path opacity="0.996" fill-rule="evenodd" clip-rule="evenodd" d="M6737.5 -0.5C6741.83 -0.5 6746.17 -0.5 6750.5 -0.5C6867.7 1.2159 6978.03 29.7159 7081.5 85C7083.26 85.7199 7084.09 86.8866 7084 88.5C7036.02 66.4292 6987.52 65.2625 6938.5 85C6920.14 93.1717 6903.47 103.838 6888.5 117C7076.49 102.341 7242.83 154.674 7387.5 274C7444.55 323.361 7492.39 380.194 7531 444.5C7532.3 446.365 7532.63 448.365 7532 450.5C7488.3 390.71 7429.8 366.21 7356.5 377C7343.69 384.168 7337.03 395.168 7336.5 410C7337.17 416.91 7338.34 423.743 7340 430.5C7384.53 543.029 7461.03 626.196 7569.5 680C7668.75 725.958 7771.41 735.792 7877.5 709.5C7877.5 710.833 7877.5 712.167 7877.5 713.5C7834.41 826.769 7758.07 909.602 7648.5 962C7598.19 984.41 7545.53 997.41 7490.5 1001C7530.35 1071.11 7590.35 1112.78 7670.5 1126C7682.16 1127.22 7693.83 1128.39 7705.5 1129.5C7610.38 1299.08 7469.72 1412.58 7283.5 1470C7197.74 1493.83 7110.41 1502.83 7021.5 1497C6975.01 1496.53 6930.01 1488.2 6886.5 1472C6820.31 1441.47 6776.48 1391.3 6755 1321.5C6733.39 1237.2 6750.39 1161.87 6806 1095.5C6848.29 1049.27 6900.79 1023.1 6963.5 1017C7038.17 1013.07 7112.84 1009.07 7187.5 1005C7289.04 992.909 7372.37 947.909 7437.5 870C7317 887.947 7214.84 853.114 7131 765.5C7114.03 745.568 7099.03 724.235 7086 701.5C7075.99 680.132 7065.99 658.799 7056 637.5C7041.7 616.865 7023.87 600.031 7002.5 587C6982.4 575.45 6961.4 565.784 6939.5 558C6793.08 520.498 6678.91 438.665 6597 312.5C6587.49 296.824 6578.49 280.824 6570 264.5C6493.8 304.511 6451.13 367.511 6442 453.5C6439.84 540.68 6474.01 609.513 6544.5 660C6565.59 673.879 6588.26 684.546 6612.5 692C6534.95 697.09 6465.62 675.924 6404.5 628.5C6363.26 671.602 6317.26 708.435 6266.5 739C6234.48 757.341 6200.48 770.674 6164.5 779C6112.42 785.709 6073.58 766.209 6048 720.5C6039.16 702.155 6035.5 682.821 6037 662.5C6051.62 477.114 6125.46 320.281 6258.5 192C6393.61 68.1 6553.27 3.9333 6737.5 -0.5Z" fill="#E61619"/>
<path opacity="0.988" fill-rule="evenodd" clip-rule="evenodd" d="M1142.5 640.5C1167.5 640.5 1192.5 640.5 1217.5 640.5C1221.64 738.508 1225.98 836.508 1230.5 934.5C1205.5 934.5 1180.5 934.5 1155.5 934.5C1154.76 914.846 1154.09 895.18 1153.5 875.5C1120.83 875.333 1088.16 875.5 1055.5 876C1042.75 895.506 1029.75 914.839 1016.5 934C989.494 934.833 962.494 934.667 935.5 933.5C1004.76 835.98 1073.76 738.313 1142.5 640.5ZM1148.5 740.5C1149.83 762.321 1150.49 784.321 1150.5 806.5C1135.15 806.833 1119.82 806.499 1104.5 805.5C1119.43 783.949 1134.1 762.282 1148.5 740.5Z" fill="#989998"/>
<path opacity="0.986" fill-rule="evenodd" clip-rule="evenodd" d="M1434.5 640.5C1494.17 640.333 1553.83 640.5 1613.5 641C1636.12 647.323 1645.28 662.156 1641 685.5C1630.14 723.405 1618.48 761.071 1606 798.5C1595.81 821.699 1578.31 835.532 1553.5 840C1516.83 840.5 1480.17 840.667 1443.5 840.5C1434 872.156 1424 903.656 1413.5 935C1389.17 935.5 1364.84 935.667 1340.5 935.5C1371.43 837.051 1402.76 738.717 1434.5 640.5ZM1486.5 709.5C1512.18 709.167 1537.84 709.5 1563.5 710.5C1556.93 730.72 1550.26 750.887 1543.5 771C1517.83 771.833 1492.16 771.666 1466.5 770.5C1473.18 750.139 1479.84 729.805 1486.5 709.5Z" fill="#989998"/>
<path opacity="0.988" fill-rule="evenodd" clip-rule="evenodd" d="M1864.5 640.5C1889.17 640.5 1913.83 640.5 1938.5 640.5C1943.45 738.476 1948.12 836.476 1952.5 934.5C1927.17 934.5 1901.83 934.5 1876.5 934.5C1876.56 914.825 1876.23 895.158 1875.5 875.5C1842.83 875.333 1810.16 875.5 1777.5 876C1764.25 895.161 1751.25 914.494 1738.5 934C1711.17 934.667 1683.83 934.667 1656.5 934C1725.97 836.225 1795.3 738.392 1864.5 640.5ZM1869.5 742.5C1870.12 742.611 1870.62 742.944 1871 743.5C1871.67 764.498 1872.17 785.498 1872.5 806.5C1856.83 806.667 1841.16 806.5 1825.5 806C1840.3 784.892 1854.97 763.725 1869.5 742.5Z" fill="#989998"/>
<path opacity="0.986" fill-rule="evenodd" clip-rule="evenodd" d="M2178.5 640.5C2242.83 640.5 2307.17 640.5 2371.5 640.5C2365.21 662.884 2358.21 685.05 2350.5 707C2297.17 707.333 2243.83 707.667 2190.5 708C2173.17 761.333 2155.83 814.667 2138.5 868C2191.83 868.5 2245.17 868.667 2298.5 868.5C2291.91 890.61 2284.91 912.61 2277.5 934.5C2213.17 935.667 2148.84 935.833 2084.5 935C2069.14 930.972 2059.97 921.139 2057 905.5C2056.34 899.452 2056.67 893.452 2058 887.5C2079.8 819.105 2101.8 750.772 2124 682.5C2134.99 658.948 2153.16 644.948 2178.5 640.5Z" fill="#989998"/>
<path opacity="0.985" fill-rule="evenodd" clip-rule="evenodd" d="M2468.5 640.5C2493.17 640.5 2517.83 640.5 2542.5 640.5C2530.99 677.547 2519.32 714.547 2507.5 751.5C2539.83 751.5 2572.17 751.5 2604.5 751.5C2615.76 714.723 2627.43 678.057 2639.5 641.5C2664.16 640.5 2688.82 640.167 2713.5 640.5C2682.17 738.833 2650.83 837.167 2619.5 935.5C2594.83 935.5 2570.17 935.5 2545.5 935.5C2556.89 897.335 2568.89 859.335 2581.5 821.5C2549.17 820.5 2516.84 820.167 2484.5 820.5C2472.5 858.833 2460.5 897.167 2448.5 935.5C2423.83 935.5 2399.17 935.5 2374.5 935.5C2405.83 837.167 2437.17 738.833 2468.5 640.5Z" fill="#989998"/>
<path opacity="0.985" fill-rule="evenodd" clip-rule="evenodd" d="M2825.5 640.5C2900.84 640.167 2976.17 640.5 3051.5 641.5C3044.17 663.833 3036.83 686.167 3029.5 708.5C2978.6 709.169 2927.77 709.836 2877 710.5C2872.49 724.027 2867.99 737.527 2863.5 751C2908.83 751.5 2954.17 751.667 2999.5 751.5C2992.7 774.554 2985.7 797.554 2978.5 820.5C2932.83 820.167 2887.16 820.5 2841.5 821.5C2836.3 836.437 2831.3 851.437 2826.5 866.5C2877.5 867.333 2928.5 867.833 2979.5 868C2972.07 890.113 2964.74 912.28 2957.5 934.5C2882.17 935.5 2806.84 935.833 2731.5 935.5C2762.43 837.051 2793.76 738.717 2825.5 640.5Z" fill="#989998"/>
<path opacity="0.997" fill-rule="evenodd" clip-rule="evenodd" d="M-0.5 1988.5C-0.5 1987.17 -0.5 1985.83 -0.5 1984.5C113.773 1538.41 227.606 1092.08 341 645.5C468.432 644.168 595.932 644.168 723.5 645.5C664.532 875.039 606.365 1104.71 549 1334.5C668.131 1228.37 786.965 1121.87 905.5 1015C1059.17 1014.33 1212.83 1014.33 1366.5 1015C1223.01 1127.57 1079.35 1239.91 935.5 1352C933.773 1353.39 932.439 1355.06 931.5 1357C1000.53 1567.27 1069.87 1777.43 1139.5 1987.5C998.835 1988.5 858.168 1988.83 717.5 1988.5C685.652 1859.11 653.485 1729.77 621 1600.5C620.586 1600.04 620.086 1599.71 619.5 1599.5C561.576 1644.71 503.743 1690.05 446 1735.5C424.499 1819.51 402.999 1903.51 381.5 1987.5C254.168 1988.5 126.835 1988.83 -0.5 1988.5Z" fill="#989998"/>
<path opacity="0.997" fill-rule="evenodd" clip-rule="evenodd" d="M5125.5 644.5C5251.17 644.5 5376.83 644.5 5502.5 644.5C5463.49 798.856 5424.66 953.189 5386 1107.5C5510.1 1004.94 5650.93 971.437 5808.5 1007C5902.9 1037.73 5964.73 1100.57 5994 1195.5C6008.26 1251.79 6011.93 1308.79 6005 1366.5C5988.03 1513.45 5938.69 1648.12 5857 1770.5C5818.79 1826.38 5772.62 1874.88 5718.5 1916C5635.85 1976.27 5543.19 2007.77 5440.5 2010.5C5389.25 2010.88 5340.25 2000.72 5293.5 1980C5261.61 1964.79 5235.11 1942.95 5214 1914.5C5197.76 1892.91 5183.09 1870.24 5170 1846.5C5157.21 1893.67 5145.04 1941 5133.5 1988.5C5016.83 1988.5 4900.17 1988.5 4783.5 1988.5C4896.88 1540.32 5010.88 1092.32 5125.5 644.5ZM5501.5 1271.5C5564.32 1269.97 5603.15 1299.64 5618 1360.5C5622.27 1384.1 5622.6 1407.77 5619 1431.5C5609.69 1499.09 5589.36 1563.09 5558 1623.5C5529.24 1674.93 5487.07 1710.43 5431.5 1730C5400.63 1738.83 5369.96 1738.16 5339.5 1728C5298.66 1710.48 5275.16 1679.65 5269 1635.5C5265.83 1608.76 5266.49 1582.09 5271 1555.5C5278.33 1505.84 5292.33 1458.17 5313 1412.5C5334.02 1367.26 5365.19 1330.76 5406.5 1303C5435.71 1284.76 5467.37 1274.26 5501.5 1271.5Z" fill="#989998"/>
<path opacity="0.974" fill-rule="evenodd" clip-rule="evenodd" d="M6853.5 739.5C6871.38 738.719 6888.38 742.219 6904.5 750C6928.6 762.377 6950.6 777.71 6970.5 796C6985.23 810.061 6999.23 824.727 7012.5 840C6992.66 831.716 6972.33 824.383 6951.5 818C6897.94 802.417 6843.94 799.917 6789.5 810.5C6795.2 791.77 6804.03 774.77 6816 759.5C6826.25 748.46 6838.75 741.794 6853.5 739.5Z" fill="#E61619"/>
<path opacity="0.997" fill-rule="evenodd" clip-rule="evenodd" d="M1409.5 2382.5C1384.17 2382.5 1358.83 2382.5 1333.5 2382.5C1264.4 2377.8 1195.4 2370.64 1126.5 2361C1125.98 2360.44 1125.64 2359.77 1125.5 2359C1137.75 2272.41 1150.42 2185.91 1163.5 2099.5C1205.05 2113.38 1247.72 2121.54 1291.5 2124C1322.31 2126.79 1352.97 2125.79 1383.5 2121C1429.41 2111.47 1467.58 2088.97 1498 2053.5C1515.91 2032.43 1532.08 2010.09 1546.5 1986.5C1492.94 1662.82 1439.27 1339.15 1385.5 1015.5C1517.16 1014.5 1648.83 1014.17 1780.5 1014.5C1792.15 1229.84 1803.98 1445.17 1816 1660.5C1932.5 1445.5 2049 1230.5 2165.5 1015.5C2288.5 1014.17 2411.5 1014.17 2534.5 1015.5C2314.42 1366.67 2094.58 1718 1875 2069.5C1837.29 2129.88 1794.96 2186.88 1748 2240.5C1686.26 2307.45 1610.42 2349.95 1520.5 2368C1483.7 2375.56 1446.7 2380.39 1409.5 2382.5Z" fill="#989998"/>
<path opacity="0.997" fill-rule="evenodd" clip-rule="evenodd" d="M2597.5 1014.5C2722.83 1014.5 2848.17 1014.5 2973.5 1014.5C2927.49 1196.19 2881.33 1377.86 2835 1559.5C2829.73 1581.54 2826.57 1603.87 2825.5 1626.5C2824.9 1677.39 2849.57 1707.22 2899.5 1716C2953.29 1721.85 3000.29 1706.85 3040.5 1671C3065.11 1647.72 3084.28 1620.55 3098 1589.5C3111.91 1558.1 3123.24 1525.77 3132 1492.5C3172.5 1333.15 3213 1173.81 3253.5 1014.5C3378.17 1014.5 3502.83 1014.5 3627.5 1014.5C3545.16 1338.86 3462.66 1663.19 3380 1987.5C3263.57 1988.83 3147.07 1988.83 3030.5 1987.5C3043.98 1936.25 3056.81 1884.92 3069 1833.5C3024.21 1875.97 2975.71 1913.47 2923.5 1946C2846.51 1990.17 2763.51 2011.67 2674.5 2010.5C2628.63 2011.08 2584.3 2003.24 2541.5 1987C2474.62 1957.1 2435.12 1905.93 2423 1833.5C2417.66 1789.04 2418.66 1744.7 2426 1700.5C2428.62 1685.09 2431.62 1669.76 2435 1654.5C2489.17 1441.15 2543.34 1227.81 2597.5 1014.5Z" fill="#989998"/>
<path opacity="0.997" fill-rule="evenodd" clip-rule="evenodd" d="M3811.5 1014.5C3936.84 1014.17 4062.17 1014.5 4187.5 1015.5C4141.51 1195.12 4095.68 1374.79 4050 1554.5C4042.74 1581.37 4039.41 1608.71 4040 1636.5C4043.21 1682.09 4067.38 1708.59 4112.5 1716C4157.97 1721.84 4199.3 1711.5 4236.5 1685C4268.38 1661.45 4292.55 1631.61 4309 1595.5C4322.37 1566.74 4333.37 1537.07 4342 1506.5C4383.99 1342.87 4425.82 1179.2 4467.5 1015.5C4592.16 1014.5 4716.83 1014.17 4841.5 1014.5C4759.16 1338.86 4676.66 1663.19 4594 1987.5C4477.57 1988.5 4361.07 1988.83 4244.5 1988.5C4257.82 1936.89 4270.65 1885.22 4283 1833.5C4241.83 1872.31 4197.67 1907.14 4150.5 1938C4070.28 1987.77 3982.78 2011.94 3888 2010.5C3846.05 2010.87 3805.21 2004.37 3765.5 1991C3683.99 1958.11 3640.16 1897.61 3634 1809.5C3631.53 1766.8 3634.53 1724.47 3643 1682.5C3647.54 1659.32 3652.88 1636.32 3659 1613.5C3709.99 1413.86 3760.83 1214.19 3811.5 1014.5Z" fill="#989998"/>
<path opacity="0.997" fill-rule="evenodd" clip-rule="evenodd" d="M6256.5 1014.5C6381.17 1014.5 6505.83 1014.5 6630.5 1014.5C6548.16 1338.86 6465.66 1663.19 6383 1987.5C6258.57 1988.5 6134.07 1988.83 6009.5 1988.5C6091.52 1663.76 6173.85 1339.1 6256.5 1014.5Z" fill="#989998"/>
</g>
<defs>
<clipPath id="clip0_5858_3385">
<rect width="7878" height="2383" fill="white"/>
</clipPath>
</defs>
</svg>
